<?xml version="1.0" standalone="no"?><!DOCTYPE svg PUBLIC "-//W3C//DTD SVG 1.1//EN" "http://www.w3.org/Graphics/SVG/1.1/DTD/svg11.dtd"><svg t="1705154191815" class="icon" viewBox="0 0 1024 1024" version="1.1" xmlns="http://www.w3.org/2000/svg" p-id="1443" xmlns:xlink="http://www.w3.org/1999/xlink" width="200" height="200"><path d="M826.176 229.824c7.893333-7.466667 19.178667-10.176 29.610667-7.146667 10.453333 3.050667 18.474667 11.392 21.056 21.888a30.122667 30.122667 0 0 1-8.576 29.034667l-81.984 77.696v167.68h121.898666c16.853333 0 30.485333 13.525333 30.485334 30.229333 0 16.725333-13.653333 30.272-30.485334 30.272h-121.898666v35.306667a269.866667 269.866667 0 0 1-37.333334 137.28l119.381334 113.130667c11.349333 11.690667 11.392 30.165333 0.106666 41.92-11.306667 11.733333-29.909333 12.565333-42.197333 1.856l-114.005333-108.053334a274.474667 274.474667 0 0 1-169.728 84.48v-361.386666c0-16.704-13.653333-30.250667-30.485334-30.250667s-30.464 13.546667-30.464 30.250667v361.386666a274.154667 274.154667 0 0 1-169.728-84.48l-114.005333 108.053334c-12.181333 11.52-31.466667 11.093333-43.093333-1.002667a30.101333 30.101333 0 0 1 1.002666-42.773333l119.338667-113.130667a269.610667 269.610667 0 0 1-37.354667-137.28v-35.285333H115.818667A30.357333 30.357333 0 0 1 85.333333 549.248c0-16.704 13.653333-30.250667 30.485334-30.250667h121.898666v-167.68L155.733333 273.6a30.08 30.08 0 0 1-8.576-29.013333c2.56-10.496 10.602667-18.837333 21.034667-21.866667a30.613333 30.613333 0 0 1 29.589333 7.146667l86.954667 82.368h454.528zM512 85.333333c84.16 0 152.384 67.733333 152.384 151.253334v20.202666H359.616v-20.181333C359.616 153.066667 427.84 85.333333 512 85.333333z" fill="#273645" p-id="1444"></path></svg>